<?xml version="1.0"?>
<svg version="1.1" xmlns="http://www.w3.org/2000/svg" width="400" height="200" style="border: dashed 2px #aaa"><path fill="#" d="M29.751953125,116.7890625l-1.44921875-4.7578125l-7.287109375,0l-1.44921875,4.7578125l-4.56640625,0l7.0546875-20.0703125l5.181640625,0l7.08203125,20.0703125l-4.56640625,0z M27.291015625,108.4765625q-2.009765625-6.466796875-2.2626953125-7.314453125t-0.3623046875-1.33984375q-0.451171875,1.75-2.583984375,8.654296875l5.208984375,0z M42.60037109375,116.7890625l-4.169921875,0l0-21.2734375l4.169921875,0l0,21.2734375z M77.89486328125,116.7890625l-4.826171875,0l-2.70703125-10.5q-0.150390625-0.560546875-0.5126953125-2.3173828125t-0.4169921875-2.3583984375q-0.08203125,0.73828125-0.41015625,2.3720703125t-0.505859375,2.3310546875l-2.693359375,10.47265625l-4.8125,0l-5.099609375-19.98828125l4.169921875,0l2.556640625,10.91015625q0.669921875,3.021484375,0.970703125,5.236328125q0.08203125-0.779296875,0.3759765625-2.4130859375t0.5537109375-2.5361328125l2.912109375-11.197265625l4.005859375,0l2.912109375,11.197265625q0.19140625,0.751953125,0.478515625,2.296875t0.4375,2.65234375q0.13671875-1.06640625,0.4375-2.6591796875t0.546875-2.5771484375l2.54296875-10.91015625l4.169921875,0z M96.799921875,116.7890625l-0.806640625-2.078125l-0.109375,0q-1.052734375,1.326171875-2.1669921875,1.8388671875t-2.9052734375,0.5126953125q-2.201171875,0-3.4658203125-1.2578125t-1.2646484375-3.58203125q0-2.43359375,1.7021484375-3.5888671875t5.1337890625-1.2783203125l2.65234375-0.08203125l0-0.669921875q0-2.32421875-2.37890625-2.32421875q-1.83203125,0-4.306640625,1.107421875l-1.380859375-2.81640625q2.638671875-1.380859375,5.8515625-1.380859375q3.076171875,0,4.716796875,1.33984375t1.640625,4.07421875l0,10.185546875l-2.912109375,0z M95.569453125,109.70703125l-1.61328125,0.0546875q-1.818359375,0.0546875-2.70703125,0.65625t-0.888671875,1.83203125q0,1.763671875,2.0234375,1.763671875q1.44921875,0,2.3173828125-0.833984375t0.8681640625-2.21484375l0-1.2578125z M114.37880859375,104.634765625l-3.609375,0l0,12.154296875l-4.169921875,0l0-12.154296875l-2.296875,0l0-2.009765625l2.296875-1.12109375l0-1.12109375q0-2.611328125,1.28515625-3.814453125t4.115234375-1.203125q2.16015625,0,3.841796875,0.642578125l-1.06640625,3.0625q-1.2578125-0.396484375-2.32421875-0.396484375q-0.888671875,0-1.28515625,0.5263671875t-0.396484375,1.3466796875l0,0.95703125l3.609375,0l0,3.130859375z M118.5182421875,97.552734375q0-2.037109375,2.26953125-2.037109375t2.26953125,2.037109375q0,0.970703125-0.5673828125,1.5107421875t-1.7021484375,0.5400390625q-2.26953125,0-2.26953125-2.05078125z M122.8658984375,116.7890625l-4.169921875,0l0-15.28515625l4.169921875,0l0,15.28515625z M135.49556640625,113.794921875q1.5859375,0,2.32421875-0.9091796875t0.806640625-3.1787109375l0-0.505859375q0-2.4609375-0.7587890625-3.52734375t-2.4404296875-1.06640625q-2.939453125,0-2.939453125,4.62109375q0,2.296875,0.7314453125,3.431640625t2.2763671875,1.134765625z M134.00533203125,117.0625q-2.70703125,0-4.23828125-2.0849609375t-1.53125-5.8037109375q0-3.74609375,1.5654296875-5.8515625t4.2861328125-2.10546875q1.44921875,0,2.529296875,0.546875t1.900390625,1.6953125l0.109375,0l0.369140625-1.955078125l3.52734375,0l0,22.01171875l-4.18359375,0l0-6.412109375q0-0.833984375,0.177734375-2.296875l-0.177734375,0q-0.669921875,1.107421875-1.77734375,1.681640625t-2.556640625,0.57421875z"/><path fill="#" d=""/></svg>
